<mxfile host="app.diagrams.net" modified="2023-06-01T00:47:23.876Z" agent="Mozilla/5.0 (Windows NT 10.0; Win64; x64) AppleWebKit/537.36 (KHTML, like Gecko) Chrome/113.0.0.0 Safari/537.36" etag="qFVWbn-pEK-wh-twa2W7" version="21.3.6" type="google">
  <diagram name="P치gina-1" id="fgg9cSLboJYWzhF-4fTo">
    <mxGraphModel grid="1" page="1" gridSize="10" guides="1" tooltips="1" connect="1" arrows="1" fold="1" pageScale="1" pageWidth="827" pageHeight="1169" math="0" shadow="0">
      <root>
        <mxCell id="0" />
        <mxCell id="1" parent="0" />
        <mxCell id="jAffNQ9nt965mYp1dztX-35" value="" style="ellipse;whiteSpace=wrap;html=1;fillColor=#F5F5F5;" vertex="1" parent="1">
          <mxGeometry x="1125" y="-75" width="50" height="50" as="geometry" />
        </mxCell>
        <mxCell id="jAffNQ9nt965mYp1dztX-4" style="edgeStyle=orthogonalEdgeStyle;rounded=0;orthogonalLoop=1;jettySize=auto;html=1;entryX=0;entryY=0.5;entryDx=0;entryDy=0;" edge="1" parent="1" source="6naz0Haf13iRlFtYeK7D-1" target="jAffNQ9nt965mYp1dztX-3">
          <mxGeometry relative="1" as="geometry" />
        </mxCell>
        <mxCell id="6naz0Haf13iRlFtYeK7D-1" value="" style="ellipse;whiteSpace=wrap;html=1;fillColor=#000000;" vertex="1" parent="1">
          <mxGeometry x="30" y="200" width="40" height="40" as="geometry" />
        </mxCell>
        <mxCell id="jAffNQ9nt965mYp1dztX-1" value="Inicio" style="text;html=1;align=center;verticalAlign=middle;resizable=0;points=[];autosize=1;strokeColor=none;fillColor=none;" vertex="1" parent="1">
          <mxGeometry x="25" y="170" width="50" height="30" as="geometry" />
        </mxCell>
        <mxCell id="jAffNQ9nt965mYp1dztX-2" value="Estado&lt;br&gt;Reporte salud mascota&lt;br&gt;&amp;nbsp;&amp;nbsp;" style="text;html=1;align=center;verticalAlign=middle;resizable=0;points=[];autosize=1;strokeColor=none;fillColor=none;" vertex="1" parent="1">
          <mxGeometry x="-25" y="240" width="150" height="60" as="geometry" />
        </mxCell>
        <mxCell id="jAffNQ9nt965mYp1dztX-7" style="edgeStyle=orthogonalEdgeStyle;rounded=0;orthogonalLoop=1;jettySize=auto;html=1;entryX=0;entryY=0.5;entryDx=0;entryDy=0;" edge="1" parent="1" source="jAffNQ9nt965mYp1dztX-3" target="jAffNQ9nt965mYp1dztX-6">
          <mxGeometry relative="1" as="geometry" />
        </mxCell>
        <mxCell id="jAffNQ9nt965mYp1dztX-3" value="Mascota seleccionada" style="rounded=1;whiteSpace=wrap;html=1;" vertex="1" parent="1">
          <mxGeometry x="250" y="190" width="120" height="60" as="geometry" />
        </mxCell>
        <mxCell id="jAffNQ9nt965mYp1dztX-5" value="Seleccionar mascota" style="text;html=1;align=center;verticalAlign=middle;resizable=0;points=[];autosize=1;strokeColor=none;fillColor=none;" vertex="1" parent="1">
          <mxGeometry x="90" y="190" width="130" height="30" as="geometry" />
        </mxCell>
        <mxCell id="jAffNQ9nt965mYp1dztX-13" style="edgeStyle=orthogonalEdgeStyle;rounded=0;orthogonalLoop=1;jettySize=auto;html=1;entryX=0;entryY=0.5;entryDx=0;entryDy=0;" edge="1" parent="1" source="jAffNQ9nt965mYp1dztX-6" target="jAffNQ9nt965mYp1dztX-11">
          <mxGeometry relative="1" as="geometry" />
        </mxCell>
        <mxCell id="jAffNQ9nt965mYp1dztX-15" style="edgeStyle=orthogonalEdgeStyle;rounded=0;orthogonalLoop=1;jettySize=auto;html=1;exitX=1;exitY=0.25;exitDx=0;exitDy=0;entryX=0;entryY=0.5;entryDx=0;entryDy=0;" edge="1" parent="1" source="jAffNQ9nt965mYp1dztX-6" target="jAffNQ9nt965mYp1dztX-10">
          <mxGeometry relative="1" as="geometry">
            <Array as="points">
              <mxPoint x="680" y="200" />
              <mxPoint x="690" y="200" />
              <mxPoint x="690" y="110" />
            </Array>
          </mxGeometry>
        </mxCell>
        <mxCell id="jAffNQ9nt965mYp1dztX-20" style="edgeStyle=orthogonalEdgeStyle;rounded=0;orthogonalLoop=1;jettySize=auto;html=1;exitX=1;exitY=0.75;exitDx=0;exitDy=0;entryX=0;entryY=0.5;entryDx=0;entryDy=0;" edge="1" parent="1" source="jAffNQ9nt965mYp1dztX-6" target="jAffNQ9nt965mYp1dztX-19">
          <mxGeometry relative="1" as="geometry">
            <Array as="points">
              <mxPoint x="680" y="240" />
              <mxPoint x="740" y="240" />
              <mxPoint x="740" y="320" />
            </Array>
          </mxGeometry>
        </mxCell>
        <mxCell id="jAffNQ9nt965mYp1dztX-22" style="edgeStyle=orthogonalEdgeStyle;rounded=0;orthogonalLoop=1;jettySize=auto;html=1;exitX=1;exitY=1;exitDx=0;exitDy=0;entryX=0;entryY=0.75;entryDx=0;entryDy=0;" edge="1" parent="1" source="jAffNQ9nt965mYp1dztX-6" target="jAffNQ9nt965mYp1dztX-12">
          <mxGeometry relative="1" as="geometry" />
        </mxCell>
        <mxCell id="jAffNQ9nt965mYp1dztX-6" value="Mascota enviada a revisi칩n" style="rounded=1;whiteSpace=wrap;html=1;" vertex="1" parent="1">
          <mxGeometry x="560" y="190" width="120" height="60" as="geometry" />
        </mxCell>
        <mxCell id="jAffNQ9nt965mYp1dztX-8" value="Enviar reporte a revisi칩n" style="text;html=1;align=center;verticalAlign=middle;resizable=0;points=[];autosize=1;strokeColor=none;fillColor=none;" vertex="1" parent="1">
          <mxGeometry x="385" y="185" width="150" height="30" as="geometry" />
        </mxCell>
        <mxCell id="jAffNQ9nt965mYp1dztX-23" style="edgeStyle=orthogonalEdgeStyle;rounded=0;orthogonalLoop=1;jettySize=auto;html=1;entryX=0;entryY=0.5;entryDx=0;entryDy=0;" edge="1" parent="1" source="jAffNQ9nt965mYp1dztX-10" target="jAffNQ9nt965mYp1dztX-25">
          <mxGeometry relative="1" as="geometry">
            <mxPoint x="1100" y="110" as="targetPoint" />
          </mxGeometry>
        </mxCell>
        <mxCell id="jAffNQ9nt965mYp1dztX-10" value="Saludable" style="rounded=1;whiteSpace=wrap;html=1;" vertex="1" parent="1">
          <mxGeometry x="850" y="80" width="120" height="60" as="geometry" />
        </mxCell>
        <mxCell id="jAffNQ9nt965mYp1dztX-29" style="edgeStyle=orthogonalEdgeStyle;rounded=0;orthogonalLoop=1;jettySize=auto;html=1;exitX=1;exitY=0.5;exitDx=0;exitDy=0;entryX=0.5;entryY=1;entryDx=0;entryDy=0;" edge="1" parent="1" source="jAffNQ9nt965mYp1dztX-11" target="jAffNQ9nt965mYp1dztX-25">
          <mxGeometry relative="1" as="geometry">
            <Array as="points">
              <mxPoint x="970" y="210" />
              <mxPoint x="1150" y="210" />
            </Array>
          </mxGeometry>
        </mxCell>
        <mxCell id="jAffNQ9nt965mYp1dztX-11" value="En terapia" style="rounded=1;whiteSpace=wrap;html=1;" vertex="1" parent="1">
          <mxGeometry x="850" y="190" width="120" height="60" as="geometry" />
        </mxCell>
        <mxCell id="jAffNQ9nt965mYp1dztX-45" style="edgeStyle=orthogonalEdgeStyle;rounded=0;orthogonalLoop=1;jettySize=auto;html=1;exitX=1;exitY=0.75;exitDx=0;exitDy=0;entryX=1;entryY=1;entryDx=0;entryDy=0;" edge="1" parent="1" source="jAffNQ9nt965mYp1dztX-12" target="jAffNQ9nt965mYp1dztX-25">
          <mxGeometry relative="1" as="geometry" />
        </mxCell>
        <mxCell id="jAffNQ9nt965mYp1dztX-12" value="Enferma" style="rounded=1;whiteSpace=wrap;html=1;" vertex="1" parent="1">
          <mxGeometry x="860" y="405" width="120" height="60" as="geometry" />
        </mxCell>
        <mxCell id="jAffNQ9nt965mYp1dztX-14" value="Valida si &lt;br&gt;requiere terapia&amp;nbsp;" style="text;html=1;align=center;verticalAlign=middle;resizable=0;points=[];autosize=1;strokeColor=none;fillColor=none;" vertex="1" parent="1">
          <mxGeometry x="710" y="175" width="110" height="40" as="geometry" />
        </mxCell>
        <mxCell id="jAffNQ9nt965mYp1dztX-16" value="Validar se encuentra bien" style="text;html=1;align=center;verticalAlign=middle;resizable=0;points=[];autosize=1;strokeColor=none;fillColor=none;" vertex="1" parent="1">
          <mxGeometry x="670" y="80" width="160" height="30" as="geometry" />
        </mxCell>
        <mxCell id="jAffNQ9nt965mYp1dztX-18" value="Validar si presenta alguna&lt;br&gt;&amp;nbsp;enfermedad" style="text;html=1;align=center;verticalAlign=middle;resizable=0;points=[];autosize=1;strokeColor=none;fillColor=none;" vertex="1" parent="1">
          <mxGeometry x="692" y="405" width="160" height="40" as="geometry" />
        </mxCell>
        <mxCell id="jAffNQ9nt965mYp1dztX-27" style="edgeStyle=orthogonalEdgeStyle;rounded=0;orthogonalLoop=1;jettySize=auto;html=1;entryX=0.5;entryY=1;entryDx=0;entryDy=0;exitX=1;exitY=0.5;exitDx=0;exitDy=0;" edge="1" parent="1" source="jAffNQ9nt965mYp1dztX-11" target="jAffNQ9nt965mYp1dztX-3">
          <mxGeometry relative="1" as="geometry">
            <Array as="points">
              <mxPoint x="970" y="230" />
              <mxPoint x="1490" y="230" />
              <mxPoint x="1490" y="740" />
              <mxPoint x="310" y="740" />
            </Array>
          </mxGeometry>
        </mxCell>
        <mxCell id="jAffNQ9nt965mYp1dztX-41" style="edgeStyle=orthogonalEdgeStyle;rounded=0;orthogonalLoop=1;jettySize=auto;html=1;entryX=0.75;entryY=1;entryDx=0;entryDy=0;" edge="1" parent="1" source="jAffNQ9nt965mYp1dztX-19" target="jAffNQ9nt965mYp1dztX-25">
          <mxGeometry relative="1" as="geometry" />
        </mxCell>
        <mxCell id="jAffNQ9nt965mYp1dztX-47" style="edgeStyle=orthogonalEdgeStyle;rounded=0;orthogonalLoop=1;jettySize=auto;html=1;exitX=1;exitY=0.75;exitDx=0;exitDy=0;entryX=0.75;entryY=1;entryDx=0;entryDy=0;" edge="1" parent="1" source="jAffNQ9nt965mYp1dztX-19" target="jAffNQ9nt965mYp1dztX-3">
          <mxGeometry relative="1" as="geometry">
            <Array as="points">
              <mxPoint x="1460" y="335" />
              <mxPoint x="1460" y="700" />
              <mxPoint x="340" y="700" />
            </Array>
          </mxGeometry>
        </mxCell>
        <mxCell id="jAffNQ9nt965mYp1dztX-19" value="Recuperaci칩n" style="rounded=1;whiteSpace=wrap;html=1;" vertex="1" parent="1">
          <mxGeometry x="850" y="290" width="120" height="60" as="geometry" />
        </mxCell>
        <mxCell id="jAffNQ9nt965mYp1dztX-21" value="Validar si requiere&lt;br&gt;&amp;nbsp;reposo" style="text;html=1;align=center;verticalAlign=middle;resizable=0;points=[];autosize=1;strokeColor=none;fillColor=none;" vertex="1" parent="1">
          <mxGeometry x="732" y="280" width="120" height="40" as="geometry" />
        </mxCell>
        <mxCell id="jAffNQ9nt965mYp1dztX-24" value="Esta saludable" style="text;html=1;align=center;verticalAlign=middle;resizable=0;points=[];autosize=1;strokeColor=none;fillColor=none;" vertex="1" parent="1">
          <mxGeometry x="980" y="80" width="100" height="30" as="geometry" />
        </mxCell>
        <mxCell id="jAffNQ9nt965mYp1dztX-38" style="edgeStyle=orthogonalEdgeStyle;rounded=0;orthogonalLoop=1;jettySize=auto;html=1;entryX=0.5;entryY=1;entryDx=0;entryDy=0;" edge="1" parent="1" source="jAffNQ9nt965mYp1dztX-25" target="jAffNQ9nt965mYp1dztX-35">
          <mxGeometry relative="1" as="geometry" />
        </mxCell>
        <mxCell id="jAffNQ9nt965mYp1dztX-25" value="Entregar reporte" style="rounded=1;whiteSpace=wrap;html=1;" vertex="1" parent="1">
          <mxGeometry x="1090" y="80" width="120" height="60" as="geometry" />
        </mxCell>
        <mxCell id="jAffNQ9nt965mYp1dztX-28" value="Validar de nuevo si requiere terapia" style="text;html=1;align=center;verticalAlign=middle;resizable=0;points=[];autosize=1;strokeColor=none;fillColor=none;" vertex="1" parent="1">
          <mxGeometry x="770" y="740" width="210" height="30" as="geometry" />
        </mxCell>
        <mxCell id="jAffNQ9nt965mYp1dztX-30" value="Requiere terapia" style="text;html=1;align=center;verticalAlign=middle;resizable=0;points=[];autosize=1;strokeColor=none;fillColor=none;" vertex="1" parent="1">
          <mxGeometry x="980" y="180" width="110" height="30" as="geometry" />
        </mxCell>
        <mxCell id="jAffNQ9nt965mYp1dztX-31" value="" style="ellipse;whiteSpace=wrap;html=1;fillColor=#000000;" vertex="1" parent="1">
          <mxGeometry x="1130" y="-70" width="40" height="40" as="geometry" />
        </mxCell>
        <mxCell id="jAffNQ9nt965mYp1dztX-32" value="Fin" style="text;html=1;align=center;verticalAlign=middle;resizable=0;points=[];autosize=1;strokeColor=none;fillColor=none;" vertex="1" parent="1">
          <mxGeometry x="1130" y="-100" width="40" height="30" as="geometry" />
        </mxCell>
        <mxCell id="jAffNQ9nt965mYp1dztX-33" value="Estado&lt;br&gt;Reporte salud mascota&lt;br&gt;&amp;nbsp;&amp;nbsp;" style="text;html=1;align=center;verticalAlign=middle;resizable=0;points=[];autosize=1;strokeColor=none;fillColor=none;" vertex="1" parent="1">
          <mxGeometry x="1076" y="-10" width="150" height="60" as="geometry" />
        </mxCell>
        <mxCell id="jAffNQ9nt965mYp1dztX-43" value="Requiere reposo" style="text;html=1;align=center;verticalAlign=middle;resizable=0;points=[];autosize=1;strokeColor=none;fillColor=none;" vertex="1" parent="1">
          <mxGeometry x="1010" y="285" width="110" height="30" as="geometry" />
        </mxCell>
        <mxCell id="jAffNQ9nt965mYp1dztX-46" value="Se encuentra enferma" style="text;html=1;align=center;verticalAlign=middle;resizable=0;points=[];autosize=1;strokeColor=none;fillColor=none;" vertex="1" parent="1">
          <mxGeometry x="990" y="420" width="140" height="30" as="geometry" />
        </mxCell>
        <mxCell id="jAffNQ9nt965mYp1dztX-48" value="Validar si requiere m치s reposo" style="text;html=1;align=center;verticalAlign=middle;resizable=0;points=[];autosize=1;strokeColor=none;fillColor=none;" vertex="1" parent="1">
          <mxGeometry x="780" y="668" width="190" height="30" as="geometry" />
        </mxCell>
      </root>
    </mxGraphModel>
  </diagram>
</mxfile>
